<?xml version="1.0" encoding="UTF-8" standalone="no"?>
<!-- Generator: Adobe Illustrator 17.1.0, SVG Export Plug-In . SVG Version: 6.00 Build 0)  -->

<svg
   version="1.1"
   id="Capa_1"
   x="0px"
   y="0px"
   viewBox="0 0 379.99999 379.99999"
   xml:space="preserve"
   sodipodi:docname="logo.svg"
   width="380"
   height="380"
   inkscape:export-filename="C:\Users\jamabaiz\Downloads\logo.png"
   inkscape:export-xdpi="258.69473"
   inkscape:export-ydpi="258.69473"
   inkscape:version="1.1.1 (3bf5ae0d25, 2021-09-20)"
   xmlns:inkscape="http://www.inkscape.org/namespaces/inkscape"
   xmlns:sodipodi="http://sodipodi.sourceforge.net/DTD/sodipodi-0.dtd"
   xmlns:xlink="http://www.w3.org/1999/xlink"
   xmlns="http://www.w3.org/2000/svg"
   xmlns:svg="http://www.w3.org/2000/svg"><defs
   id="defs37"><linearGradient
     inkscape:collect="always"
     id="linearGradient858"><stop
       style="stop-color:#7ebae1;stop-opacity:1"
       offset="0"
       id="stop854" /><stop
       style="stop-color:#004c62;stop-opacity:1"
       offset="1"
       id="stop856" /></linearGradient><linearGradient
     inkscape:collect="always"
     xlink:href="#linearGradient858"
     id="linearGradient860"
     x1="43.375099"
     y1="42.737232"
     x2="152.45071"
     y2="259.61273"
     gradientUnits="userSpaceOnUse"
     gradientTransform="matrix(0.96640832,0,0,0.96640832,6.4900004,6.4896911)" /></defs><sodipodi:namedview
   id="namedview35"
   pagecolor="#ffffff"
   bordercolor="#666666"
   borderopacity="1.0"
   inkscape:pageshadow="2"
   inkscape:pageopacity="0.0"
   inkscape:pagecheckerboard="0"
   showgrid="false"
   inkscape:zoom="1.5677197"
   inkscape:cx="186.57672"
   inkscape:cy="217.8323"
   inkscape:window-width="1920"
   inkscape:window-height="1027"
   inkscape:window-x="319"
   inkscape:window-y="1072"
   inkscape:window-maximized="1"
   inkscape:current-layer="Capa_1" />
<path
   d="m 360.4989,100.95514 c -0.12467,-1.105573 -1.49214,-1.105573 -2.30875,-1.105573 -6.53099,0 -36.23935,4.775993 -60.70977,12.641583 -1.58298,0.5093 -2.82481,0.7567 -3.79606,0.7567 -1.89512,0 -2.63056,-0.89683 -4.1111,-2.92725 -1.78592,-2.44791 -4.2319,-5.79942 -10.79864,-8.61456 -2.70981,-1.16163 -5.85354,-1.751135 -9.34227,-1.751135 -13.74329,0 -31.11738,8.999195 -41.31299,21.398215 -0.0638,0.0773 -0.0995,0.0928 -0.10341,0.0928 -0.88233,0 -3.95164,-3.44428 -9.25529,-16.48886 -3.8782,-9.538446 -7.8627,-21.616617 -10.15115,-30.772369 -3.43365,-13.734595 -13.41182,-33.046332 -20.01432,-45.824183 -2.81708,-5.452476 -5.04272,-9.758791 -5.60227,-11.438409 -0.43198,-1.294021 -1.11137,-1.951178 -2.02076,-1.951178 -0.58371,0 -1.14422,0.289922 -1.71344,0.886196 -6.43435,6.748429 -19.58813,63.061042 -18.76475,80.339456 0.67552,14.188807 11.87813,23.783307 17.26102,28.394047 0.63686,0.54505 1.31721,1.12779 1.84681,1.6139 -2.86444,-1.0244 -8.86293,-5.93085 -16.82131,-12.44058 C 151.29856,104.37236 133.94669,90.180651 110.44751,74.669798 77.527777,52.941073 56.439781,31.403698 43.840715,18.536937 35.447459,9.9677947 31.943263,6.4896912 29.481821,6.4896912 c -0.584677,0 -1.649659,0.2193746 -2.201478,1.6912145 -2.825778,7.5360523 0.728671,85.4488573 35.828621,127.5678343 19.597795,23.51754 44.586216,35.59185 61.121456,43.58211 9.52782,4.60397 17.05421,8.24057 18.21777,11.65295 0.26383,0.77603 0.19618,1.52016 -0.21551,2.34354 -1.56462,3.12923 -4.28989,6.95138 -7.7419,11.79212 -9.49883,13.32 -23.85289,33.45029 -34.36065,67.00592 -4.721867,15.07693 -54.083104,67.89308 -66.920872,80.73085 -0.626233,0.62623 -15.314673,15.38232 -13.587701,19.54947 0.13723,0.33245 0.592408,1.10461 1.843907,1.10461 3.069312,0 11.165881,-5.2592 24.0655,-15.65098 16.883153,-13.60027 28.411438,-24.97973 36.829821,-33.2947 8.192243,-8.09271 13.320972,-13.13929 16.841597,-13.68531 -0.321814,1.72407 -1.338475,6.15312 -4.422284,17.32383 -0.07441,0.26963 -0.230005,0.9065 0.122734,1.37037 l 0.343075,0.55665 h 0.478372 c 9.66e-4,0 0.0019,0 0.0029,0 0.747034,0 1.132631,-0.59724 4.377831,-4.62523 9.89988,-12.28691 40.02573,-49.82898 81.87604,-58.04925 24.52358,-4.81754 54.97511,-27.561 65.7235,-61.70903 16.25692,-51.6439 29.86395,-84.13165 101.64296,-100.58475 11.33307,-2.59867 11.26156,-3.23843 11.15139,-4.20677 z"
   id="path2"
   style="fill:url(#linearGradient860);fill-opacity:1;stroke-width:0.966408" />
<g
   id="g4">
</g>
<g
   id="g6">
</g>
<g
   id="g8">
</g>
<g
   id="g10">
</g>
<g
   id="g12">
</g>
<g
   id="g14">
</g>
<g
   id="g16">
</g>
<g
   id="g18">
</g>
<g
   id="g20">
</g>
<g
   id="g22">
</g>
<g
   id="g24">
</g>
<g
   id="g26">
</g>
<g
   id="g28">
</g>
<g
   id="g30">
</g>
<g
   id="g32">
</g>
</svg>
